# xmcd
#
# Track frame offsets:
#	750
#	16753
#	28673
#	45238
#	56989
#	74194
#	101720
#	117268
#	134917
#	146282
#	163392
#	175621
#	191527
#	206424
#	235268
#	250345
#	264005
#	280804
#	297154
#	323021
#	355177
#
# Disc length: 4743 seconds
#
# Revision: 0
# Processed by: cddbd v1.5.1PL2 Copyright (c) Steve Scherf et al.
# Submitted via: dBpowerAMP V4.0
#
DISCID=3c127d15
DTITLE=Tom Astor - Live
DYEAR=2004
DGENRE=Country Deutsch
TTITLE0=Rocky Mountain Man
TTITLE1=Alter Freund, überhol dich nicht selber (This is my year for Mexico)
TTITLE2=Mein Eldorado
TTITLE3=Hit Medley
TTITLE4=International airport - Frankfurt am Main
TTITLE5=Trucker Medley
TTITLE6=Geistertruck
TTITLE7=mit einer starken Frau
TTITLE8=Some broken hearts never mind
TTITLE9=Wenn ich dich mal brauch
TTITLE10=Freunde
TTITLE11=Irgendwie wird´s schon gehn
TTITLE12=Der Wind wird sich bald wieder drehen
TTITLE13=Tom Dooley
TTITLE14=Wieder ein Morgen (morning has broken)
TTITLE15=Take it easy - nimm´s leicht
TTITLE16=Take me home Country roads
TTITLE17=Hallo, guten Morgen Deutschland
TTITLE18=Junger Adler
TTITLE19=Auf Wiedersehn, goodbye
TTITLE20=DATA
EXTD=Tom Astor - Live
EXTT0=
EXTT1=
EXTT2=
EXTT3=
EXTT4=
EXTT5=
EXTT6=
EXTT7=
EXTT8=
EXTT9=
EXTT10=
EXTT11=
EXTT12=
EXTT13=
EXTT14=
EXTT15=
EXTT16=
EXTT17=
EXTT18=
EXTT19=
EXTT20=
PLAYORDER=
